<svg version="1.1" id="Layer_1" xmlns="http://www.w3.org/2000/svg" xmlns:xlink="http://www.w3.org/1999/xlink" x="0px" y="0px"
	 width="100%" viewBox="0 0 128 128" enable-background="new 0 0 128 128" xml:space="preserve">
<path fill="#FFFEFE" opacity="1.000000" stroke="none" 
	d="
M69.000000,129.000000 
	C46.000000,129.000000 23.500000,129.000000 1.000000,129.000000 
	C1.000000,86.333336 1.000000,43.666668 1.000000,1.000000 
	C43.666668,1.000000 86.333336,1.000000 129.000000,1.000000 
	C129.000000,43.666668 129.000000,86.333336 129.000000,129.000000 
	C109.166664,129.000000 89.333336,129.000000 69.000000,129.000000 
M46.913120,102.033455 
	C46.913120,102.033455 46.858627,102.089409 46.929676,102.782028 
	C52.641338,108.773544 59.476395,110.900444 67.822113,110.350510 
	C74.532715,109.908310 79.015984,106.653145 83.094978,102.041367 
	C83.094978,102.041367 83.022781,102.078163 83.654259,102.145607 
	C84.123627,101.767433 84.592995,101.389259 85.709999,101.020477 
	C86.139023,100.989517 86.568047,100.958557 87.760818,101.078102 
	C93.178757,102.544235 98.541443,104.320831 104.045944,105.300636 
	C105.863647,105.624191 109.336983,104.370735 109.840309,103.016090 
	C112.011345,97.172974 113.361023,91.024673 115.230476,84.205559 
	C113.060913,76.917175 110.891350,69.628792 109.276833,61.767296 
	C110.771973,58.665234 112.911995,55.700035 113.606422,52.428028 
	C114.572800,47.874710 113.648483,42.847435 114.974739,38.458576 
	C117.595810,29.784916 113.663963,22.813957 111.024376,14.995509 
	C107.966446,16.583870 105.496918,17.866598 102.267830,18.973022 
	C94.175018,21.806738 86.082214,24.640455 77.441322,27.349474 
	C77.259247,27.393652 77.077164,27.437830 76.088081,27.280645 
	C68.421074,27.345905 60.754070,27.411165 52.549259,27.350435 
	C52.369797,27.391851 52.190331,27.433268 51.389885,27.196486 
	C41.615948,23.729427 31.842010,20.262367 22.063175,16.909286 
	C22.063175,16.909286 22.173464,16.880117 21.975021,16.346779 
	C21.613708,16.266439 21.252398,16.186100 20.140781,15.756858 
	C19.569660,15.908438 18.573524,15.937884 18.489725,16.229502 
	C16.516317,23.096891 12.338926,29.463411 14.886558,37.291065 
	C16.313852,41.676460 17.025824,46.468460 17.058254,51.084297 
	C17.089569,55.541752 18.098215,59.196941 21.119396,63.050518 
	C19.068319,70.360947 17.017242,77.671379 14.946488,85.778160 
	C16.552425,91.329018 18.241314,96.857704 19.732853,102.439133 
	C20.612381,105.730385 22.451477,106.577469 25.606651,105.618546 
	C31.439253,103.845863 37.317490,102.223351 43.647003,100.405251 
	C43.647003,100.405251 44.031868,100.104019 44.473217,100.244598 
	C44.473217,100.244598 44.935707,100.282845 44.831032,100.629623 
	C44.831032,100.629623 44.946793,100.972870 45.225433,101.548660 
	C45.810204,101.723846 46.394978,101.899025 46.913120,102.033455 
z"/>
<path fill="#F4841B" opacity="1.000000" stroke="none" 
	d="
M14.966165,84.981812 
	C17.017242,77.671379 19.068319,70.360947 21.552658,62.589195 
	C28.671772,60.357315 35.357624,58.586761 42.003803,57.186424 
	C40.632603,60.354057 39.301083,63.151474 37.772892,66.163605 
	C40.516338,74.163544 48.546513,74.581688 54.536903,77.914497 
	C54.867962,78.098686 56.735733,76.642540 56.930462,75.742661 
	C57.549713,72.880989 57.715672,69.921242 58.309750,66.740433 
	C58.037083,59.311581 57.511459,52.141682 56.998611,44.657623 
	C56.653198,43.604679 56.295013,42.865898 55.951744,41.732868 
	C54.643673,37.226616 53.320690,33.114613 52.265404,28.821198 
	C52.717751,28.251999 52.902405,27.864212 53.087063,27.476425 
	C60.754070,27.411165 68.421074,27.345905 76.592529,27.694473 
	C77.398758,28.406403 77.700531,28.704500 77.961349,29.374485 
	C76.633163,33.868420 75.345924,37.990467 73.903610,42.387794 
	C73.503151,43.433556 73.257774,44.204037 72.997253,45.399666 
	C72.650642,52.877476 72.319191,59.930134 71.976273,67.375534 
	C71.666916,69.823753 71.369019,71.879219 71.045601,74.402496 
	C71.020081,78.517891 71.020081,82.165474 71.020081,85.301926 
	C72.302322,82.913719 73.633659,80.434074 75.134567,77.727478 
	C77.874504,76.937988 80.982780,77.093086 82.898491,75.657150 
	C86.423599,73.014870 91.207153,71.227829 92.019287,65.580208 
	C90.657097,62.415199 89.307640,59.616013 88.362976,56.850906 
	C95.419121,58.703461 102.070450,60.521935 108.721786,62.340408 
	C110.891350,69.628792 113.060913,76.917175 114.650970,84.600861 
	C108.053612,84.993561 102.035767,84.990952 95.558548,84.983879 
	C91.389267,85.312851 87.679359,85.646286 83.624481,86.023582 
	C80.184013,88.696571 77.088516,91.325699 73.701782,93.972824 
	C73.216240,94.000389 73.021942,94.009949 72.612846,93.989807 
	C72.398041,93.960106 72.007019,93.772171 71.895615,93.395538 
	C67.111961,91.823807 62.424984,90.343918 57.781029,93.822365 
	C57.572285,93.912445 57.125832,93.998680 56.846767,93.992859 
	C56.381847,93.977905 56.195988,93.968765 55.958183,93.624329 
	C52.614307,90.852608 49.322376,88.416183 45.738533,85.684525 
	C41.625153,85.255653 37.803688,85.122017 33.515053,84.990410 
	C27.020647,84.988899 20.993406,84.985352 14.966165,84.981812 
z"/>
<path fill="#773E17" opacity="1.000000" stroke="none" 
	d="
M108.999313,62.053852 
	C102.070450,60.521935 95.419121,58.703461 88.084015,56.693016 
	C82.604301,52.658871 77.808350,48.816692 73.012398,44.974518 
	C73.257774,44.204037 73.503151,43.433556 74.199638,42.218090 
	C81.081573,37.029266 87.602753,32.401455 93.905830,27.493546 
	C97.146988,24.969807 99.999344,21.946747 103.027397,19.149326 
	C105.496918,17.866598 107.966446,16.583870 111.024376,14.995509 
	C113.663963,22.813957 117.595810,29.784916 114.974739,38.458576 
	C113.648483,42.847435 114.572800,47.874710 113.606422,52.428028 
	C112.911995,55.700035 110.771973,58.665234 108.999313,62.053852 
z"/>
<path fill="#773E17" opacity="1.000000" stroke="none" 
	d="
M42.043480,56.816208 
	C35.357624,58.586761 28.671772,60.357315 21.608227,62.208752 
	C18.098215,59.196941 17.089569,55.541752 17.058254,51.084297 
	C17.025824,46.468460 16.313852,41.676460 14.886558,37.291065 
	C12.338926,29.463411 16.516317,23.096891 18.489725,16.229502 
	C18.573524,15.937884 19.569660,15.908438 20.655386,16.166775 
	C21.504482,16.677834 21.838972,16.778976 22.173464,16.880117 
	C22.173464,16.880117 22.063175,16.909286 22.164810,17.185511 
	C33.489906,25.683529 44.713367,33.905323 55.936829,42.127121 
	C56.295013,42.865898 56.653198,43.604679 56.698914,44.807350 
	C51.605461,49.119568 46.824471,52.967888 42.043480,56.816208 
z"/>
<path fill="#E4771D" opacity="1.000000" stroke="none" 
	d="
M14.956326,85.379982 
	C20.993406,84.985352 27.020647,84.988899 33.557129,85.342178 
	C37.103149,90.640709 40.139935,95.589493 43.176720,100.538284 
	C37.317490,102.223351 31.439253,103.845863 25.606651,105.618546 
	C22.451477,106.577469 20.612381,105.730385 19.732853,102.439133 
	C18.241314,96.857704 16.552425,91.329018 14.956326,85.379982 
z"/>
<path fill="#E4771E" opacity="1.000000" stroke="none" 
	d="
M96.017914,84.988342 
	C102.035767,84.990952 108.053612,84.993561 114.540573,84.991821 
	C113.361023,91.024673 112.011345,97.172974 109.840309,103.016090 
	C109.336983,104.370735 105.863647,105.624191 104.045944,105.300636 
	C98.541443,104.320831 93.178757,102.544235 87.342003,100.827209 
	C86.923187,100.576324 86.862930,100.221626 87.014114,99.891205 
	C90.116173,94.703308 93.067047,89.845825 96.017914,84.988342 
z"/>
<path fill="#E5781F" opacity="1.000000" stroke="none" 
	d="
M55.951744,41.732864 
	C44.713367,33.905323 33.489906,25.683529 22.167259,17.128521 
	C31.842010,20.262367 41.615948,23.729427 51.693058,27.718834 
	C51.996727,28.494995 51.997219,28.748804 51.997707,29.002611 
	C53.320690,33.114613 54.643673,37.226616 55.951744,41.732864 
z"/>
<path fill="#BEAB9D" opacity="1.000000" stroke="none" 
	d="
M83.149429,102.101379 
	C79.015984,106.653145 74.532715,109.908310 67.822113,110.350510 
	C59.476395,110.900444 52.641338,108.773544 47.264942,102.438797 
	C50.152401,103.212479 52.704594,104.329384 55.338943,105.482239 
	C55.895718,104.457222 56.422813,103.486839 57.380150,102.309013 
	C62.889103,102.237450 67.967812,102.373329 73.259125,102.724640 
	C73.831573,103.783836 74.191422,104.627609 74.518631,105.394836 
	C77.521347,104.249016 80.335388,103.175201 83.149429,102.101379 
z"/>
<path fill="#E5781F" opacity="1.000000" stroke="none" 
	d="
M102.647614,19.061174 
	C99.999344,21.946747 97.146988,24.969807 93.905830,27.493546 
	C87.602753,32.401455 81.081573,37.029266 74.354721,41.942810 
	C75.345924,37.990467 76.633163,33.868420 77.961906,28.992329 
	C77.998741,27.983582 77.994072,27.728878 77.989403,27.474171 
	C86.082214,24.640455 94.175018,21.806738 102.647614,19.061174 
z"/>
<path fill="#CE6216" opacity="1.000000" stroke="none" 
	d="
M43.411858,100.471764 
	C40.139935,95.589493 37.103149,90.640709 34.024292,85.340149 
	C37.803688,85.122017 41.625153,85.255653 45.724113,86.111801 
	C45.696632,90.930275 45.391659,95.026237 45.058601,99.087234 
	C45.030525,99.052269 45.120171,99.054893 44.866982,99.143906 
	C44.419819,99.523277 44.225842,99.813644 44.031868,100.104019 
	C44.031868,100.104019 43.647003,100.405251 43.411858,100.471764 
z"/>
<path fill="#D6BCAD" opacity="1.000000" stroke="none" 
	d="
M83.122208,102.071373 
	C80.335388,103.175201 77.521347,104.249016 74.518631,105.394836 
	C74.191422,104.627609 73.831573,103.783836 73.493011,102.288437 
	C73.285408,99.097702 73.056526,96.558601 72.827652,94.019501 
	C73.021942,94.009949 73.216240,94.000389 73.995239,94.168427 
	C78.019669,95.942741 81.459412,97.539452 84.936066,99.114319 
	C84.972984,99.092484 84.891327,99.066208 84.985733,99.299347 
	C85.382904,99.646591 85.685669,99.760689 86.201668,99.975098 
	C86.414902,100.075394 86.862930,100.221626 86.862930,100.221626 
	C86.862930,100.221626 86.923187,100.576324 86.960129,100.751961 
	C86.568047,100.958557 86.139023,100.989517 85.075974,101.035675 
	C83.968887,101.393303 83.495834,101.735733 83.022781,102.078163 
	C83.022781,102.078163 83.094978,102.041367 83.122208,102.071373 
z"/>
<path fill="#D8BEAE" opacity="1.000000" stroke="none" 
	d="
M56.949905,102.516457 
	C56.422813,103.486839 55.895718,104.457222 55.338943,105.482239 
	C52.704594,104.329384 50.152401,103.212479 47.229416,102.092491 
	C46.858627,102.089409 46.913120,102.033455 46.788635,101.789398 
	C46.091698,101.354515 45.519245,101.163689 44.946793,100.972870 
	C44.946793,100.972870 44.831032,100.629623 44.933659,100.149628 
	C45.064247,99.464722 45.092209,99.259811 45.120171,99.054893 
	C45.120171,99.054893 45.030525,99.052269 45.412785,99.038551 
	C49.200073,97.336433 52.605099,95.648026 56.010128,93.959625 
	C56.195988,93.968765 56.381847,93.977905 56.852226,94.460899 
	C57.074471,97.461990 57.012184,99.989220 56.949905,102.516457 
z"/>
<path fill="#BEAB9D" opacity="1.000000" stroke="none" 
	d="
M45.086113,101.260765 
	C45.519245,101.163689 46.091698,101.354515 46.821953,101.809769 
	C46.394978,101.899025 45.810204,101.723846 45.086113,101.260765 
z"/>
<path fill="#BEAB9D" opacity="1.000000" stroke="none" 
	d="
M83.338516,102.111885 
	C83.495834,101.735733 83.968887,101.393303 84.752151,101.030983 
	C84.592995,101.389259 84.123627,101.767433 83.338516,102.111885 
z"/>
<path fill="#F6820F" opacity="1.000000" stroke="none" 
	d="
M52.265404,28.821198 
	C51.997219,28.748804 51.996727,28.494995 52.003548,27.857935 
	C52.190331,27.433268 52.369797,27.391851 52.818161,27.413429 
	C52.902405,27.864212 52.717751,28.251999 52.265404,28.821198 
z"/>
<path fill="#F6820F" opacity="1.000000" stroke="none" 
	d="
M77.715363,27.411823 
	C77.994072,27.728878 77.998741,27.983582 78.002853,28.620441 
	C77.700531,28.704500 77.398758,28.406403 76.996033,27.795156 
	C77.077164,27.437830 77.259247,27.393652 77.715363,27.411823 
z"/>
<path fill="#E3751A" opacity="1.000000" stroke="none" 
	d="
M44.866982,99.143906 
	C45.092209,99.259811 45.064247,99.464722 44.985996,99.976242 
	C44.935707,100.282845 44.473217,100.244598 44.252541,100.174309 
	C44.225842,99.813644 44.419819,99.523277 44.866982,99.143906 
z"/>
<path fill="#E5781F" opacity="1.000000" stroke="none" 
	d="
M22.074242,16.613449 
	C21.838972,16.778976 21.504482,16.677834 21.030537,16.341225 
	C21.252398,16.186100 21.613708,16.266439 22.074242,16.613449 
z"/>
<path fill="#E3751B" opacity="1.000000" stroke="none" 
	d="
M42.003807,57.186428 
	C46.824471,52.967888 51.605461,49.119568 56.686142,45.121517 
	C57.511459,52.141682 58.037083,59.311581 57.863281,66.742584 
	C50.765759,66.652092 44.367661,66.300491 37.969563,65.948891 
	C39.301083,63.151474 40.632603,60.354057 42.003807,57.186428 
z"/>
<path fill="#E3761B" opacity="1.000000" stroke="none" 
	d="
M72.997253,45.399666 
	C77.808350,48.816692 82.604301,52.658871 87.679214,56.658936 
	C89.307640,59.616013 90.657097,62.415199 91.549416,65.601212 
	C84.724098,66.319618 78.355911,66.651207 71.987732,66.982803 
	C72.319191,59.930134 72.650642,52.877476 72.997253,45.399666 
z"/>
<path fill="#CA6118" opacity="1.000000" stroke="none" 
	d="
M71.976273,67.375542 
	C78.355911,66.651207 84.724098,66.319618 91.562149,65.967026 
	C91.207153,71.227829 86.423599,73.014870 82.898491,75.657150 
	C80.982780,77.093086 77.874504,76.937988 74.790649,77.679871 
	C73.208481,76.551041 72.139801,75.242867 71.071121,73.934692 
	C71.369019,71.879219 71.666916,69.823753 71.976273,67.375542 
z"/>
<path fill="#C86018" opacity="1.000000" stroke="none" 
	d="
M37.772892,66.163605 
	C44.367661,66.300491 50.765759,66.652092 57.610325,67.001541 
	C57.715672,69.921242 57.549713,72.880989 56.930462,75.742661 
	C56.735733,76.642540 54.867962,78.098686 54.536903,77.914497 
	C48.546513,74.581688 40.516338,74.163544 37.772892,66.163605 
z"/>
<path fill="#1C1B1B" opacity="1.000000" stroke="none" 
	d="
M57.380142,102.309013 
	C57.012184,99.989220 57.074471,97.461990 57.131294,94.466721 
	C57.125832,93.998680 57.572285,93.912445 58.240791,93.895432 
	C63.275204,93.843002 67.641113,93.807587 72.007019,93.772171 
	C72.007019,93.772171 72.398041,93.960106 72.612846,93.989807 
	C73.056526,96.558601 73.285408,99.097702 73.280411,102.073006 
	C67.967812,102.373329 62.889103,102.237450 57.380142,102.309013 
z"/>
<path fill="#CE6216" opacity="1.000000" stroke="none" 
	d="
M87.014114,99.891205 
	C86.862930,100.221626 86.414902,100.075394 86.074066,99.774429 
	C85.507568,99.224136 85.226936,99.088387 84.891327,99.066208 
	C84.891327,99.066208 84.972984,99.092484 84.973846,98.652725 
	C84.639618,94.135216 84.304535,90.057472 83.969452,85.979721 
	C87.679359,85.646286 91.389267,85.312851 95.558548,84.983879 
	C93.067047,89.845825 90.116173,94.703308 87.014114,99.891205 
z"/>
<path fill="#E3751A" opacity="1.000000" stroke="none" 
	d="
M55.958183,93.624329 
	C52.605099,95.648026 49.200073,97.336433 45.440865,99.073517 
	C45.391659,95.026237 45.696632,90.930275 46.016026,86.407043 
	C49.322376,88.416183 52.614307,90.852608 55.958183,93.624329 
z"/>
<path fill="#E4761A" opacity="1.000000" stroke="none" 
	d="
M83.624481,86.023575 
	C84.304535,90.057472 84.639618,94.135216 84.936928,98.674561 
	C81.459412,97.539452 78.019669,95.942741 74.286476,94.150421 
	C77.088516,91.325699 80.184013,88.696571 83.624481,86.023575 
z"/>
<path fill="#E3751A" opacity="1.000000" stroke="none" 
	d="
M71.895615,93.395538 
	C67.641113,93.807587 63.275204,93.843002 58.449532,93.805351 
	C62.424984,90.343918 67.111961,91.823807 71.895615,93.395538 
z"/>
<path fill="#E3761B" opacity="1.000000" stroke="none" 
	d="
M71.045601,74.402496 
	C72.139801,75.242867 73.208481,76.551041 74.621078,77.906815 
	C73.633659,80.434074 72.302322,82.913719 71.020081,85.301926 
	C71.020081,82.165474 71.020081,78.517891 71.045601,74.402496 
z"/>
<path fill="#E4761A" opacity="1.000000" stroke="none" 
	d="
M84.985733,99.299347 
	C85.226936,99.088387 85.507568,99.224136 85.860832,99.674126 
	C85.685669,99.760689 85.382904,99.646591 84.985733,99.299347 
z"/>
</svg>