<svg version="1.1" id="Layer_1" xmlns="http://www.w3.org/2000/svg" xmlns:xlink="http://www.w3.org/1999/xlink" x="0px" y="0px"
	 width="100%" viewBox="0 0 225 225" enable-background="new 0 0 225 225" xml:space="preserve">
<path fill="#FFFFFF" opacity="1.000000" stroke="none" 
	d="
M153.000000,226.000000 
	C102.000000,226.000000 51.500008,226.000000 1.000007,226.000000 
	C1.000005,151.000000 1.000005,76.000015 1.000002,1.000017 
	C75.999992,1.000011 150.999985,1.000011 225.999969,1.000006 
	C225.999985,75.999985 225.999985,150.999969 226.000000,225.999969 
	C201.833328,226.000000 177.666672,226.000000 153.000000,226.000000 
M113.692902,198.144592 
	C120.337830,197.694763 124.718811,193.954346 127.729904,188.345367 
	C141.811951,162.113770 162.011963,142.077103 188.097702,127.712158 
	C201.807755,120.162285 201.417221,104.968369 188.140869,96.714462 
	C178.424942,90.674080 168.849869,84.262741 159.929657,77.120461 
	C146.236450,66.156494 136.564926,51.745422 127.936340,36.638809 
	C124.592613,30.784752 120.042656,26.831463 112.056671,26.831257 
	C105.133781,26.843189 100.945503,30.832775 97.198845,36.203846 
	C89.228935,47.629200 81.449791,59.276794 72.474991,69.888168 
	C62.499344,81.682907 49.159115,89.573807 35.936287,97.361794 
	C29.466660,101.172287 26.145498,106.721893 27.000418,114.370811 
	C27.735134,120.944283 31.831944,124.945839 37.310699,128.126724 
	C52.623703,137.017212 67.379929,146.775970 78.355919,160.969528 
	C85.050812,169.627029 91.026588,178.863937 96.974724,188.067215 
	C100.813721,194.007111 105.139137,198.590134 113.692902,198.144592 
z"/>
<path fill="#FFB08A" opacity="1.000000" stroke="none" 
	d="
M112.870850,198.069519 
	C105.139137,198.590134 100.813721,194.007111 96.974724,188.067215 
	C91.026588,178.863937 85.050812,169.627029 78.355919,160.969528 
	C67.379929,146.775970 52.623703,137.017212 37.310699,128.126724 
	C31.831944,124.945839 27.735134,120.944283 27.000418,114.370811 
	C26.145498,106.721893 29.466660,101.172287 35.936287,97.361794 
	C49.159115,89.573807 62.499344,81.682907 72.474991,69.888168 
	C81.449791,59.276794 89.228935,47.629200 97.198845,36.203846 
	C100.945503,30.832775 105.133781,26.843189 112.411125,27.351719 
	C112.656158,46.305676 112.546738,64.739166 112.362892,83.206642 
	C112.288467,83.240623 112.031960,83.462074 111.601662,83.539978 
	C94.891563,85.057022 82.456276,98.170700 83.233032,113.080345 
	C84.068405,129.115036 96.940063,141.412552 112.661507,141.037933 
	C112.821960,141.033020 113.141121,141.067810 113.048119,141.524948 
	C112.927025,160.677902 112.898941,179.373703 112.870850,198.069519 
z"/>
<path fill="#FF3601" opacity="1.000000" stroke="none" 
	d="
M112.437317,83.172661 
	C112.546738,64.739166 112.656158,46.305676 112.818634,27.401222 
	C120.042656,26.831463 124.592613,30.784752 127.936340,36.638809 
	C136.564926,51.745422 146.236450,66.156494 159.929657,77.120461 
	C168.849869,84.262741 178.424942,90.674080 188.140869,96.714462 
	C201.417221,104.968369 201.807755,120.162285 188.097702,127.712158 
	C162.011963,142.077103 141.811951,162.113770 127.729904,188.345367 
	C124.718811,193.954346 120.337830,197.694763 113.281876,198.107056 
	C112.898941,179.373703 112.927025,160.677902 113.457779,141.618561 
	C116.244507,140.914780 118.612061,140.850494 120.798943,140.188965 
	C133.768799,136.265640 143.231201,122.721146 141.788132,110.357491 
	C139.965195,94.739204 128.726379,84.329773 112.437317,83.172661 
z"/>
<path fill="#FFAF89" opacity="1.000000" stroke="none" 
	d="
M112.362885,83.206642 
	C128.726379,84.329773 139.965195,94.739204 141.788132,110.357491 
	C143.231201,122.721146 133.768799,136.265640 120.798943,140.188965 
	C118.612061,140.850494 116.244507,140.914780 113.550781,141.161407 
	C113.141121,141.067810 112.821960,141.033020 112.558121,140.576385 
	C112.206833,121.233871 112.119392,102.347969 112.031952,83.462074 
	C112.031960,83.462074 112.288467,83.240623 112.362885,83.206642 
z"/>
<path fill="#FF3601" opacity="1.000000" stroke="none" 
	d="
M111.601654,83.539978 
	C112.119392,102.347969 112.206833,121.233871 112.397659,140.581299 
	C96.940063,141.412552 84.068405,129.115036 83.233032,113.080345 
	C82.456276,98.170700 94.891563,85.057022 111.601654,83.539978 
z"/>
</svg>